<svg xmlns="http://www.w3.org/2000/svg" width="32" height="32" viewBox="0 0 32 32">
    <g>
        <g fill="#ccc" stroke="#fff" stroke-width="2px" transform="translate(-213 -156) translate(213 156)">
            <circle cx="16" cy="16" r="16" stroke="none"/>
            <circle cx="16" cy="16" r="15" fill="none"/>
        </g>
        <path fill="#fff" d="M20.5 972.362l-1.25 2.5h-3.5a1.746 1.746 0 0 0-1.75 1.75v9a1.746 1.746 0 0 0 1.75 1.75h14.5a1.746 1.746 0 0 0 1.75-1.75v-9a1.746 1.746 0 0 0-1.75-1.75h-3.5l-1.25-2.5zm2.5 4.25a4.5 4.5 0 1 1-4.5 4.5 4.511 4.511 0 0 1 4.5-4.5zm0 1.5a3 3 0 1 0 3 3 2.989 2.989 0 0 0-3-3z" transform="translate(-213 -156) translate(206 -808.362)"/>
    </g>
</svg>
