<svg width="72" height="72" viewBox="0 0 72 72" fill="none" xmlns="http://www.w3.org/2000/svg">
<g clip-path="url(#clip0_1412:9626)">
<path d="M36 71C55.33 71 71 55.33 71 36C71 16.67 55.33 1 36 1C16.67 1 1 16.67 1 36C1 55.33 16.67 71 36 71Z" stroke="white" stroke-width="2"/>
<path fill-rule="evenodd" clip-rule="evenodd" d="M50.2119 27.474C50.2119 35.3225 43.8494 41.685 36.0009 41.685C28.1524 41.685 21.7899 35.3225 21.7899 27.474C21.7899 19.6255 28.1524 13.263 36.0009 13.263C43.8494 13.263 50.2119 19.6255 50.2119 27.474ZM27.5459 71C30.3148 71.665 33.1524 72.0006 35.9999 72C38.8474 72.0013 41.6851 71.6663 44.4539 71.002C47.1337 70.3563 49.7299 69.4033 52.1909 68.162C57.0371 65.7071 61.2713 62.1971 64.5819 57.89C61.2208 53.7717 56.9891 50.4491 52.1909 48.161C49.7191 46.9815 47.1243 46.0793 44.4539 45.471C38.8884 44.2104 33.1115 44.2104 27.5459 45.471C24.8755 46.0798 22.2807 46.9822 19.8089 48.162C15.0107 50.4499 10.7792 53.7729 7.41895 57.892C10.73 62.198 14.9641 65.707 19.8099 68.161C22.2708 69.4019 24.8666 70.3545 27.5459 71Z" fill="#959799"/>
</g>
<defs>
<clipPath id="clip0_1412:9626">
<rect width="72" height="72" fill="white"/>
</clipPath>
</defs>
</svg>
